<svg width="729" height="134" viewBox="0 0 729 134" fill="none" xmlns="http://www.w3.org/2000/svg">
<g clip-path="url(#clip0_29_17)">
<path fill-rule="evenodd" clip-rule="evenodd" d="M48.9219 1.88171H0V133.594H81.6235C81.6235 133.097 81.6934 132.591 81.8382 132.09L94.0714 90.3172H48.9214V1.88171H48.9219ZM99.7254 128.173V109.439L94.2389 128.173H99.7254Z" fill="#1F1F1F"/>
<path fill-rule="evenodd" clip-rule="evenodd" d="M338.236 133.594L360.816 60.2114V133.594H409.738V1.88171H340.119L318.48 73.3824L296.842 1.88171H227.222V111.224L233.218 131.682C233.442 132.277 233.565 132.921 233.565 133.594H276.144V60.2114L298.723 133.594H338.236Z" fill="#1F1F1F"/>
<path d="M533.925 86.5536H568.931V48.9211H533.925V39.5133H586.609V1.88135H486.163C513.147 7.28206 525.624 23.8827 525.624 46.0989C525.624 70.3451 510.762 87.9027 485.003 91.5108V91.5126C481.778 91.9647 478.381 92.1976 474.821 92.1976C467.294 92.1976 457.886 91.2575 457.886 91.2575V133.593H485.003H525.455H590.372V95.9613H533.924V86.5536H533.925Z" fill="#1F1F1F"/>
<path d="M728.75 133.594L696.762 82.7902C696.762 82.7902 713.697 73.3825 713.697 46.0997C713.697 18.8166 694.88 0.00012207 653.485 0.00012207C625.262 0.00012207 598.919 1.88177 598.919 1.88177V133.594H647.841V90.3173H649.722L672.301 133.594H728.75ZM647.841 56.4481V35.7509H653.485C660.071 35.7509 664.775 40.4548 664.775 46.1002C664.775 51.7447 660.071 56.4486 653.485 56.4486H647.841V56.4481Z" fill="#1F1F1F"/>
<path d="M457.886 56.4481V35.7505H465.412C471.998 35.7505 476.702 40.4544 476.702 46.0998C476.702 51.7447 471.998 56.4486 465.412 56.4486H457.886V56.4481Z" fill="#1F1F1F"/>
<path fill-rule="evenodd" clip-rule="evenodd" d="M189.572 1.88171H125.597L87.0242 133.594H129.072H141.591C147.271 105.19 167.898 105.19 173.578 133.594H186.097H228.144C228.144 133.594 189.76 2.63392 189.571 1.88171H189.572Z" fill="#1F1F1F"/>
<path fill-rule="evenodd" clip-rule="evenodd" d="M142.941 66.8564L147.655 66.8646L167.539 66.8628L172.265 66.8555L180.208 66.782C180.718 61.1979 176.403 52.5623 173.926 49.5362C171.234 46.246 167.999 43.3225 163.676 41.9229L160.095 41.0323C159.376 40.6973 159.799 41.1426 159.411 40.4426V1.88135H155.818L155.798 40.8852C151.828 41.9134 150.375 41.9611 147.124 44.1101C140.102 48.755 134.304 59.5609 134.974 66.8038L142.941 66.856L142.941 66.8564Z" fill="white"/>
<path fill-rule="evenodd" clip-rule="evenodd" d="M172.264 66.856L167.54 66.8628C167.07 80.6076 148.143 80.5822 147.655 66.8641L142.94 66.8564C143.064 75.2927 149.199 81.9137 157.736 81.8605C166.205 81.8079 171.975 75.2995 172.264 66.856Z" fill="white"/>
<path fill-rule="evenodd" clip-rule="evenodd" d="M156.674 88.2754C156.67 89.6559 156.236 92.1209 157.137 93.2322L158.414 93.2077L158.415 88.2727L156.674 88.2754H156.674Z" fill="#1F1F1F"/>
<path fill-rule="evenodd" clip-rule="evenodd" d="M144.344 89.8552C145.005 89.2337 146.871 86.8636 147.235 85.9938C146.939 85.7464 146.606 85.5004 146.219 85.1036C145.412 85.5213 144.308 87.1038 143.692 87.9908C143.152 88.7689 143.434 88.2827 143.14 88.9377C143.823 89.7503 143.453 89.4521 144.344 89.8552Z" fill="#1F1F1F"/>
<path fill-rule="evenodd" clip-rule="evenodd" d="M170.525 89.8547C171.372 89.4457 171.031 89.729 171.713 88.9378L170.262 86.8191C169.544 85.8463 169.701 85.6729 168.696 85.1345L167.598 85.9426C167.934 86.84 169.832 89.2319 170.526 89.8547H170.525Z" fill="#1F1F1F"/>
<path fill-rule="evenodd" clip-rule="evenodd" d="M135.904 80.7561C137.125 80.3747 138.576 79.4187 139.465 78.7809C139.202 77.9779 139.155 78.0459 138.734 77.3636C137.692 77.8031 136.217 78.6356 135.357 79.4251L135.904 80.7561Z" fill="#1F1F1F"/>
<path fill-rule="evenodd" clip-rule="evenodd" d="M175.367 78.8272C176.334 79.4128 177.671 80.3108 178.798 80.7951L179.486 79.4169C178.618 78.6316 177.144 77.7845 176.098 77.3787L175.367 78.8268V78.8272Z" fill="#1F1F1F"/>
</g>
<defs>
<clipPath id="clip0_29_17">
<rect width="728.75" height="133.594" fill="white"/>
</clipPath>
</defs>
</svg>
