<svg width="482" height="53" viewBox="0 0 482 53" fill="none" xmlns="http://www.w3.org/2000/svg">
<path d="M8.55999 2.40005L10.96 2.56006V40.4001C10.96 43.2267 11.5467 45.4667 12.72 47.1201C13.8933 48.7734 15.52 49.6001 17.6 49.6001C17.7067 49.6001 17.76 49.7601 17.76 50.0801C17.76 50.4001 17.7067 50.5601 17.6 50.5601C16.1067 50.5601 14.96 50.5334 14.16 50.4801L9.83999 50.4001L4.87999 50.4801C3.97333 50.5334 2.66666 50.5601 0.959994 50.5601C0.799994 50.5601 0.719994 50.4001 0.719994 50.0801C0.719994 49.7601 0.799994 49.6001 0.959994 49.6001C3.30666 49.6001 5.14666 48.7734 6.47999 47.1201C7.86666 45.4667 8.55999 43.2267 8.55999 40.4001V2.40005ZM49.36 51.7601C49.36 51.9201 49.2267 52.0267 48.96 52.0801C48.7467 52.1334 48.5867 52.1067 48.48 52.0001L9.03999 7.12006C7.17333 4.98672 5.57333 3.52006 4.23999 2.72005C2.90666 1.92006 1.54666 1.52006 0.159994 1.52006C0.0533274 1.52006 -5.99027e-06 1.36006 -5.99027e-06 1.04006C-5.99027e-06 0.720058 0.0533274 0.560059 0.159994 0.560059L3.51999 0.640058C4.21333 0.69339 5.22666 0.720057 6.55999 0.720057L12.64 0.640058C13.3867 0.586725 14.2933 0.560059 15.36 0.560059C15.7867 0.560059 16.1067 0.666724 16.32 0.880054C16.5333 1.09339 16.9067 1.54672 17.44 2.24006C18.3467 3.46672 18.9867 4.29339 19.36 4.72006L48.72 38.5601L49.36 51.7601ZM49.36 51.7601L47.04 49.3601V10.8001C47.04 7.92006 46.4533 5.65339 45.28 4.00006C44.1067 2.34672 42.48 1.52006 40.4 1.52006C40.2933 1.52006 40.24 1.36006 40.24 1.04006C40.24 0.720058 40.2933 0.560059 40.4 0.560059L43.84 0.640058C45.5467 0.746723 46.9867 0.800056 48.16 0.800056C49.2267 0.800056 50.72 0.746723 52.64 0.640058L56.24 0.560059C56.3467 0.560059 56.4 0.720058 56.4 1.04006C56.4 1.36006 56.3467 1.52006 56.24 1.52006C54.1067 1.52006 52.4267 2.37339 51.2 4.08006C49.9733 5.73339 49.36 7.97339 49.36 10.8001V51.7601ZM105.708 30.0001H128.748L129.308 32.2401H104.508L105.708 30.0001ZM148.188 49.6001C148.455 49.6001 148.588 49.7601 148.588 50.0801C148.588 50.4001 148.455 50.5601 148.188 50.5601C147.121 50.5601 145.468 50.5067 143.228 50.4001C140.881 50.2934 139.201 50.2401 138.188 50.2401C136.855 50.2401 135.228 50.2934 133.308 50.4001C131.495 50.5067 130.055 50.5601 128.988 50.5601C128.775 50.5601 128.668 50.4001 128.668 50.0801C128.668 49.7601 128.775 49.6001 128.988 49.6001C130.375 49.6001 131.361 49.4667 131.948 49.2001C132.588 48.8801 132.908 48.3467 132.908 47.6001C132.908 46.6934 132.375 45.1734 131.308 43.0401L115.068 10.9601L118.988 4.08006L103.068 39.2001C102.375 40.7467 102.028 42.1867 102.028 43.5201C102.028 45.4401 102.695 46.9334 104.028 48.0001C105.415 49.0667 107.255 49.6001 109.548 49.6001C109.815 49.6001 109.948 49.7601 109.948 50.0801C109.948 50.4001 109.815 50.5601 109.548 50.5601C108.588 50.5601 107.201 50.5067 105.388 50.4001C103.361 50.2934 101.601 50.2401 100.108 50.2401C98.6681 50.2401 96.9348 50.2934 94.9081 50.4001C93.0948 50.5067 91.6281 50.5601 90.5081 50.5601C90.2948 50.5601 90.1881 50.4001 90.1881 50.0801C90.1881 49.7601 90.2948 49.6001 90.5081 49.6001C92.0015 49.6001 93.2548 49.3067 94.2681 48.7201C95.2815 48.0801 96.2948 46.9867 97.3081 45.4401C98.3215 43.8401 99.5215 41.4934 100.908 38.4001L118.268 0.240058C118.375 0.0800568 118.615 5.62668e-05 118.988 5.62668e-05C119.415 5.62668e-05 119.655 0.0800568 119.708 0.240058L139.708 39.6001C141.575 43.3867 143.121 46.0001 144.348 47.4401C145.575 48.8801 146.855 49.6001 148.188 49.6001ZM224.561 10.8001C224.561 7.92006 223.895 5.65339 222.561 4.00006C221.281 2.34672 219.468 1.52006 217.121 1.52006C217.015 1.52006 216.961 1.36006 216.961 1.04006C216.961 0.720058 217.015 0.560059 217.121 0.560059L220.961 0.640058C222.988 0.746723 224.615 0.800056 225.841 0.800056C226.855 0.800056 228.321 0.746723 230.241 0.640058L233.921 0.560059C234.028 0.560059 234.081 0.720058 234.081 1.04006C234.081 1.36006 234.028 1.52006 233.921 1.52006C231.841 1.52006 230.215 2.34672 229.041 4.00006C227.868 5.65339 227.281 7.92006 227.281 10.8001V33.0401C227.281 36.7734 226.455 40.0534 224.801 42.8801C223.148 45.7067 220.801 47.8934 217.761 49.4401C214.775 50.9334 211.308 51.6801 207.361 51.6801C203.415 51.6801 199.921 50.9334 196.881 49.4401C193.841 47.9467 191.441 45.7867 189.681 42.9601C187.975 40.0801 187.121 36.7201 187.121 32.8801V7.04006C187.121 5.44006 186.961 4.26673 186.641 3.52006C186.375 2.77339 185.841 2.26672 185.041 2.00005C184.295 1.68006 183.095 1.52006 181.441 1.52006C181.281 1.52006 181.201 1.36006 181.201 1.04006C181.201 0.720058 181.281 0.560059 181.441 0.560059L185.681 0.640058C188.135 0.746723 190.081 0.800056 191.521 0.800056C193.121 0.800056 195.148 0.746723 197.601 0.640058L201.681 0.560059C201.841 0.560059 201.921 0.720058 201.921 1.04006C201.921 1.36006 201.841 1.52006 201.681 1.52006C200.028 1.52006 198.801 1.68006 198.001 2.00005C197.255 2.32006 196.721 2.88006 196.401 3.68006C196.135 4.42672 196.001 5.60006 196.001 7.20005V30.0801C196.001 36.4267 197.255 41.1201 199.761 44.1601C202.268 47.2001 205.815 48.7201 210.401 48.7201C214.828 48.7201 218.295 47.3867 220.801 44.7201C223.308 42.0001 224.561 38.1334 224.561 33.1201V10.8001ZM321.931 0.560059C322.091 0.560059 322.171 0.720058 322.171 1.04006C322.171 1.36006 322.091 1.52006 321.931 1.52006C320.011 1.52006 318.171 2.37339 316.411 4.08006C314.651 5.78672 313.238 8.08006 312.171 10.9601L297.371 50.4801C297.318 50.6934 297.025 50.8001 296.491 50.8001C295.958 50.8001 295.665 50.6934 295.611 50.4801L275.211 7.20005C274.251 5.28006 273.291 3.86672 272.331 2.96006C271.371 2.00006 270.305 1.52006 269.131 1.52006C268.971 1.52006 268.891 1.36006 268.891 1.04006C268.891 0.720058 268.971 0.560059 269.131 0.560059C269.931 0.560059 270.491 0.586725 270.811 0.640058C271.878 0.746723 273.265 0.800056 274.971 0.800056C279.558 0.800056 283.451 0.746723 286.651 0.640058C287.505 0.586725 288.571 0.560059 289.851 0.560059C290.011 0.560059 290.091 0.720058 290.091 1.04006C290.091 1.36006 290.011 1.52006 289.851 1.52006C288.251 1.52006 286.998 1.86672 286.091 2.56006C285.238 3.20006 284.811 4.13339 284.811 5.36006C284.811 6.26672 285.105 7.36006 285.691 8.64005L300.251 39.6801L296.491 46.2401L309.931 10.7201C310.465 9.22672 310.731 7.94672 310.731 6.88006C310.731 5.22672 310.225 3.92006 309.211 2.96006C308.251 2.00006 306.838 1.52006 304.971 1.52006C304.811 1.52006 304.731 1.36006 304.731 1.04006C304.731 0.720058 304.811 0.560059 304.971 0.560059L308.891 0.640058C311.131 0.746723 313.131 0.800056 314.891 0.800056C315.905 0.800056 317.158 0.746723 318.651 0.640058L321.931 0.560059ZM362.133 30.0001H385.173L385.733 32.2401H360.933L362.133 30.0001ZM404.613 49.6001C404.88 49.6001 405.013 49.7601 405.013 50.0801C405.013 50.4001 404.88 50.5601 404.613 50.5601C403.546 50.5601 401.893 50.5067 399.653 50.4001C397.306 50.2934 395.626 50.2401 394.613 50.2401C393.28 50.2401 391.653 50.2934 389.733 50.4001C387.92 50.5067 386.48 50.5601 385.413 50.5601C385.2 50.5601 385.093 50.4001 385.093 50.0801C385.093 49.7601 385.2 49.6001 385.413 49.6001C386.8 49.6001 387.786 49.4667 388.373 49.2001C389.013 48.8801 389.333 48.3467 389.333 47.6001C389.333 46.6934 388.8 45.1734 387.733 43.0401L371.493 10.9601L375.413 4.08006L359.493 39.2001C358.8 40.7467 358.453 42.1867 358.453 43.5201C358.453 45.4401 359.12 46.9334 360.453 48.0001C361.84 49.0667 363.68 49.6001 365.973 49.6001C366.24 49.6001 366.373 49.7601 366.373 50.0801C366.373 50.4001 366.24 50.5601 365.973 50.5601C365.013 50.5601 363.626 50.5067 361.813 50.4001C359.786 50.2934 358.026 50.2401 356.533 50.2401C355.093 50.2401 353.36 50.2934 351.333 50.4001C349.52 50.5067 348.053 50.5601 346.933 50.5601C346.72 50.5601 346.613 50.4001 346.613 50.0801C346.613 49.7601 346.72 49.6001 346.933 49.6001C348.426 49.6001 349.68 49.3067 350.693 48.7201C351.706 48.0801 352.72 46.9867 353.733 45.4401C354.746 43.8401 355.946 41.4934 357.333 38.4001L374.693 0.240058C374.8 0.0800568 375.04 5.62668e-05 375.413 5.62668e-05C375.84 5.62668e-05 376.08 0.0800568 376.133 0.240058L396.133 39.6001C398 43.3867 399.546 46.0001 400.773 47.4401C402 48.8801 403.28 49.6001 404.613 49.6001ZM463.479 22.3201C467.052 22.3201 470.199 22.9067 472.919 24.0801C475.692 25.2534 477.825 26.8801 479.319 28.9601C480.812 31.0401 481.559 33.4134 481.559 36.0801C481.559 38.8534 480.759 41.3601 479.159 43.6001C477.559 45.8401 475.345 47.6267 472.519 48.9601C469.692 50.2401 466.545 50.8801 463.079 50.8801C461.585 50.8801 459.879 50.8001 457.959 50.6401C457.212 50.5867 456.279 50.5334 455.159 50.4801C454.092 50.4267 452.892 50.4001 451.559 50.4001L445.719 50.4801C444.652 50.5334 443.212 50.5601 441.399 50.5601C441.239 50.5601 441.159 50.4001 441.159 50.0801C441.159 49.7601 441.239 49.6001 441.399 49.6001C442.945 49.6001 444.119 49.4667 444.919 49.2001C445.719 48.8801 446.279 48.3467 446.599 47.6001C446.972 46.8001 447.159 45.6267 447.159 44.0801V7.04006C447.159 4.80006 446.785 3.33339 446.039 2.64006C445.292 1.89339 443.772 1.52006 441.479 1.52006C441.372 1.52006 441.319 1.36006 441.319 1.04006C441.319 0.720058 441.372 0.560059 441.479 0.560059L445.719 0.640058C448.172 0.746723 450.119 0.800056 451.559 0.800056C453.052 0.800056 454.599 0.720057 456.199 0.560059C456.732 0.506723 457.532 0.453389 458.599 0.400056C459.665 0.346723 460.599 0.320057 461.399 0.320057C466.252 0.320057 470.012 1.20006 472.679 2.96006C475.345 4.72006 476.679 7.28006 476.679 10.6401C476.679 13.7334 475.452 16.4801 472.999 18.8801C470.599 21.2267 467.132 22.8534 462.599 23.7601L463.479 22.3201ZM460.199 2.08006C458.652 2.08006 457.585 2.45339 456.999 3.20006C456.412 3.89339 456.119 5.22672 456.119 7.20005V22.8801L453.159 22.3201C455.505 22.4267 457.559 22.4801 459.319 22.4801C462.092 22.4801 464.225 21.4401 465.719 19.3601C467.212 17.2801 467.959 14.6134 467.959 11.3601C467.959 8.32006 467.292 6.02672 465.959 4.48006C464.625 2.88006 462.705 2.08006 460.199 2.08006ZM461.719 48.8801C468.705 48.8801 472.199 45.2534 472.199 38.0001C472.199 33.8934 471.212 30.6401 469.239 28.2401C467.265 25.8401 464.279 24.6401 460.279 24.6401C457.665 24.6401 455.399 24.8001 453.479 25.1201L456.119 24.1601V44.0801C456.119 45.8401 456.465 47.0934 457.159 47.8401C457.852 48.5334 459.372 48.8801 461.719 48.8801Z" fill="#1F1F1F"/>
</svg>
