<svg width="350" height="45" viewBox="0 0 350 45" fill="none" xmlns="http://www.w3.org/2000/svg">
<g clip-path="url(#clip0_24_3)">
<path d="M55.9863 44.3081L34.3474 0H46.0255L56.158 20.6085L66.2905 0H77.6251L55.9863 44.3081Z" fill="#1F1F1F"/>
<path d="M313.42 44.3081H301.743L291.61 23.6997L281.478 44.3081H269.628L291.266 0L313.42 44.3081Z" fill="#1F1F1F"/>
<path d="M87.5859 44.4799V0H115.579V9.44554H97.8901V17.5171H107.336V26.4475H97.8901V35.0344H115.579V44.4799H87.5859Z" fill="#1F1F1F"/>
<path d="M130.52 0L158.17 22.841V0H168.474V44.4799L140.824 21.1236V44.4799H130.52V0Z" fill="#1F1F1F"/>
<path d="M233.562 44.4799V0H243.866V34.8626H261.727V44.4799H233.562Z" fill="#1F1F1F"/>
<path d="M222.743 44.3081L212.268 34.0039L199.901 21.9824L200.074 21.8106L222.571 0H207.801L194.063 13.2237V0H183.759V6.526V20.7801V23.1845V37.4386V44.3081H194.063V30.7409L207.974 44.3081H222.743Z" fill="#1F1F1F"/>
<path d="M18.0324 18.3759C12.5368 16.1433 10.3042 15.1128 10.3042 12.3651C10.3042 10.6477 11.8498 8.93034 15.6281 8.93034C19.0627 9.10208 22.4975 10.1325 25.4171 12.0216V2.2326C22.3258 0.858703 19.0627 0.34349 15.6281 0.171753C5.32385 0.171753 0 6.18255 0 12.5368C0 17.6889 2.74779 21.9823 10.476 25.0736C17.3454 27.6497 18.3759 29.1953 18.3759 31.4279C18.3759 33.6604 17.002 35.2061 13.3955 35.2061C8.93033 35.2061 4.6369 33.6604 1.03042 31.2562V41.5603C4.80864 43.2777 8.93032 44.3082 13.052 44.4799C23.6997 44.4799 28.8519 37.9539 28.8519 31.0844C28.8519 25.5888 26.2758 21.8106 18.0324 18.3759Z" fill="#1F1F1F"/>
<path d="M339.352 18.2041C333.856 15.9715 331.452 14.9411 331.452 12.1933C331.452 10.476 332.997 8.75859 336.776 8.75859C340.211 8.93032 343.646 9.96075 346.565 11.8498V2.06085C343.474 0.686949 340.211 0.171737 336.776 0C326.472 0 321.149 6.0108 321.149 12.3651C321.149 17.5171 323.896 21.8106 331.624 24.9019C338.322 27.4779 339.524 29.0235 339.524 31.2561C339.524 33.4887 338.15 35.0344 334.544 35.0344C330.079 35.0344 325.785 33.4887 322.179 31.0844V41.3886C325.956 43.106 330.079 44.1364 334.2 44.3081C344.847 44.3081 350 37.7821 350 30.9126C350 25.4171 347.596 21.6389 339.352 18.2041Z" fill="#1F1F1F"/>
</g>
<defs>
<clipPath id="clip0_24_3">
<rect width="350" height="45" fill="white"/>
</clipPath>
</defs>
</svg>
