<svg width="733" height="57" viewBox="0 0 733 57" fill="none" xmlns="http://www.w3.org/2000/svg">
<path d="M22.24 56.4C20.96 56.4 19.92 56.0267 19.12 55.28C18.3733 54.48 18 53.4934 18 52.32V4.40002H26.56V52.32C26.56 53.4934 26.1333 54.48 25.28 55.28C24.48 56.0267 23.4667 56.4 22.24 56.4ZM4.08 8.08002C2.96 8.08002 2 7.73335 1.2 7.04002C0.400001 6.29335 5.66244e-07 5.33335 5.66244e-07 4.16002C5.66244e-07 3.04002 0.400001 2.13336 1.2 1.44002C2 0.746688 2.96 0.400021 4.08 0.400021H40.48C41.6 0.400021 42.5333 0.773354 43.28 1.52002C44.08 2.21335 44.48 3.12002 44.48 4.24002C44.48 5.41335 44.08 6.34669 43.28 7.04002C42.5333 7.73335 41.6 8.08002 40.48 8.08002H4.08ZM57.8513 0.400021C58.9179 0.400021 59.8513 0.80002 60.6513 1.60002C61.5046 2.34669 61.9313 3.30669 61.9313 4.48002V52.32C61.8779 53.4934 61.4246 54.48 60.5713 55.28C59.7713 56.0267 58.8113 56.4 57.6913 56.4C56.4646 56.4 55.4513 56.0267 54.6513 55.28C53.9046 54.48 53.5313 53.4934 53.5313 52.32V4.48002C53.5313 3.30669 53.9313 2.34669 54.7313 1.60002C55.5313 0.80002 56.5713 0.400021 57.8513 0.400021ZM93.9313 0.400021C95.2113 0.400021 96.2246 0.80002 96.9713 1.60002C97.7179 2.34669 98.0913 3.30669 98.0913 4.48002V52.32C98.0913 53.4934 97.6913 54.48 96.8913 55.28C96.1446 56.0267 95.1313 56.4 93.8513 56.4C92.7313 56.4 91.7713 56.0267 90.9713 55.28C90.1713 54.48 89.7713 53.4934 89.7713 52.32V4.48002C89.7713 3.30669 90.1713 2.34669 90.9713 1.60002C91.8246 0.80002 92.8113 0.400021 93.9313 0.400021ZM57.5313 24.24H94.0113L93.9313 31.92H57.4513L57.5313 24.24ZM115.111 0.400021H142.791C143.911 0.400021 144.845 0.773354 145.591 1.52002C146.391 2.26669 146.791 3.20002 146.791 4.32002C146.791 5.44002 146.391 6.34669 145.591 7.04002C144.845 7.73335 143.911 8.08002 142.791 8.08002H118.631L119.431 6.72002V24.64L118.711 23.84H139.191C140.311 23.84 141.245 24.2134 141.991 24.96C142.791 25.7067 143.191 26.6667 143.191 27.84C143.191 28.96 142.791 29.8667 141.991 30.56C141.245 31.2534 140.311 31.6 139.191 31.6H118.871L119.431 30.88V49.36L118.871 48.72H142.791C143.911 48.72 144.845 49.12 145.591 49.92C146.391 50.6667 146.791 51.5467 146.791 52.56C146.791 53.68 146.391 54.6134 145.591 55.36C144.845 56.0534 143.911 56.4 142.791 56.4H115.111C113.991 56.4 113.031 56.0267 112.231 55.28C111.431 54.48 111.031 53.4934 111.031 52.32V4.48002C111.031 3.30669 111.431 2.34669 112.231 1.60002C113.031 0.80002 113.991 0.400021 115.111 0.400021ZM187.4 52.32C187.347 53.4934 186.893 54.48 186.04 55.28C185.24 56.0267 184.28 56.4 183.16 56.4C181.933 56.4 180.92 56.0267 180.12 55.28C179.373 54.48 179 53.4934 179 52.32V4.48002C179 3.30669 179.4 2.34669 180.2 1.60002C181 0.80002 182.04 0.400021 183.32 0.400021C184.387 0.400021 185.32 0.80002 186.12 1.60002C186.973 2.34669 187.4 3.30669 187.4 4.48002V52.32ZM242.328 0.400021C243.395 0.400021 244.248 0.773354 244.888 1.52002C245.581 2.21335 245.928 3.09335 245.928 4.16002V52.32C245.928 53.4934 245.528 54.48 244.728 55.28C243.981 56.0267 243.021 56.4 241.848 56.4C241.315 56.4 240.728 56.2934 240.088 56.08C239.501 55.8667 239.048 55.5734 238.728 55.2L205.848 12.56L207.688 11.52V52.72C207.688 53.7334 207.341 54.6134 206.648 55.36C205.955 56.0534 205.075 56.4 204.008 56.4C202.888 56.4 201.981 56.0534 201.288 55.36C200.648 54.6134 200.328 53.7334 200.328 52.72V4.48002C200.328 3.25335 200.728 2.26669 201.528 1.52002C202.328 0.773354 203.288 0.400021 204.408 0.400021C204.995 0.400021 205.608 0.533354 206.248 0.80002C206.941 1.01335 207.448 1.36002 207.768 1.84002L239.848 43.6L238.648 44.72V4.16002C238.648 3.09335 238.995 2.21335 239.688 1.52002C240.381 0.773354 241.261 0.400021 242.328 0.400021ZM282.6 0.400021C286.493 0.400021 289.933 1.14669 292.92 2.64002C295.907 4.08002 298.387 6.10669 300.36 8.72002C302.387 11.28 303.907 14.2667 304.92 17.68C305.933 21.04 306.44 24.6134 306.44 28.4C306.44 33.5734 305.533 38.2934 303.72 42.56C301.907 46.7734 299.24 50.1334 295.72 52.64C292.2 55.1467 287.827 56.4 282.6 56.4H263.08C261.96 56.4 261 56.0267 260.2 55.28C259.4 54.48 259 53.4934 259 52.32V4.48002C259 3.30669 259.4 2.34669 260.2 1.60002C261 0.80002 261.96 0.400021 263.08 0.400021H282.6ZM281.8 48.72C285.587 48.72 288.653 47.7867 291 45.92C293.347 44.0534 295.053 41.6 296.12 38.56C297.24 35.4667 297.8 32.08 297.8 28.4C297.8 25.68 297.48 23.12 296.84 20.72C296.253 18.2667 295.293 16.1067 293.96 14.24C292.68 12.32 291.027 10.8267 289 9.76002C287.027 8.64002 284.627 8.08002 281.8 8.08002H266.68L267.4 7.36002V49.52L266.92 48.72H281.8ZM324.666 52.32C324.612 53.4934 324.159 54.48 323.306 55.28C322.506 56.0267 321.546 56.4 320.426 56.4C319.199 56.4 318.186 56.0267 317.386 55.28C316.639 54.48 316.266 53.4934 316.266 52.32V4.48002C316.266 3.30669 316.666 2.34669 317.466 1.60002C318.266 0.80002 319.306 0.400021 320.586 0.400021C321.652 0.400021 322.586 0.80002 323.386 1.60002C324.239 2.34669 324.666 3.30669 324.666 4.48002V52.32ZM357.594 10.8L339.594 54C339.274 54.8534 338.794 55.52 338.154 56C337.514 56.48 336.794 56.72 335.994 56.72C334.82 56.72 333.94 56.4 333.354 55.76C332.767 55.0667 332.447 54.2134 332.394 53.2C332.394 52.8267 332.474 52.4 332.634 51.92L352.954 2.80002C353.327 1.89336 353.86 1.20002 354.554 0.720021C355.3 0.240021 356.1 0.0266873 356.954 0.08002C357.754 0.08002 358.5 0.32002 359.194 0.80002C359.887 1.28002 360.394 1.94669 360.714 2.80002L380.794 51.2C381.007 51.7334 381.114 52.2667 381.114 52.8C381.114 53.9734 380.714 54.9334 379.914 55.68C379.167 56.3734 378.314 56.72 377.354 56.72C376.554 56.72 375.807 56.48 375.114 56C374.474 55.4667 373.994 54.8 373.674 54L355.514 11.04L357.594 10.8ZM342.794 42.64L346.394 34.96H369.034L370.394 42.64H342.794ZM430.922 0.400021C431.989 0.400021 432.842 0.773354 433.482 1.52002C434.175 2.21335 434.522 3.09335 434.522 4.16002V52.32C434.522 53.4934 434.122 54.48 433.322 55.28C432.575 56.0267 431.615 56.4 430.442 56.4C429.909 56.4 429.322 56.2934 428.682 56.08C428.095 55.8667 427.642 55.5734 427.322 55.2L394.442 12.56L396.282 11.52V52.72C396.282 53.7334 395.935 54.6134 395.242 55.36C394.549 56.0534 393.669 56.4 392.602 56.4C391.482 56.4 390.575 56.0534 389.882 55.36C389.242 54.6134 388.922 53.7334 388.922 52.72V4.48002C388.922 3.25335 389.322 2.26669 390.122 1.52002C390.922 0.773354 391.882 0.400021 393.002 0.400021C393.589 0.400021 394.202 0.533354 394.842 0.80002C395.535 1.01335 396.042 1.36002 396.362 1.84002L428.442 43.6L427.242 44.72V4.16002C427.242 3.09335 427.589 2.21335 428.282 1.52002C428.975 0.773354 429.855 0.400021 430.922 0.400021ZM488.099 56.4C486.819 56.4 485.779 56.0267 484.979 55.28C484.233 54.48 483.859 53.4934 483.859 52.32V4.40002H492.419V52.32C492.419 53.4934 491.993 54.48 491.139 55.28C490.339 56.0267 489.326 56.4 488.099 56.4ZM469.939 8.08002C468.819 8.08002 467.859 7.73335 467.059 7.04002C466.259 6.29335 465.859 5.33335 465.859 4.16002C465.859 3.04002 466.259 2.13336 467.059 1.44002C467.859 0.746688 468.819 0.400021 469.939 0.400021H506.339C507.459 0.400021 508.393 0.773354 509.139 1.52002C509.939 2.21335 510.339 3.12002 510.339 4.24002C510.339 5.41335 509.939 6.34669 509.139 7.04002C508.393 7.73335 507.459 8.08002 506.339 8.08002H469.939ZM524.191 56.4C522.911 56.4 521.791 56.0267 520.831 55.28C519.871 54.48 519.391 53.4934 519.391 52.32V4.48002C519.391 3.30669 519.791 2.34669 520.591 1.60002C521.391 0.80002 522.351 0.400021 523.471 0.400021H546.031C548.911 0.400021 551.551 1.12002 553.951 2.56002C556.351 3.94669 558.271 5.89336 559.711 8.40002C561.204 10.8534 561.951 13.68 561.951 16.88C561.951 19.0134 561.524 21.0667 560.671 23.04C559.817 24.96 558.671 26.6667 557.231 28.16C555.791 29.6534 554.164 30.7734 552.351 31.52L551.471 30C553.124 30.5867 554.564 31.44 555.791 32.56C557.017 33.6267 557.977 34.9067 558.671 36.4C559.417 37.84 559.817 39.4934 559.871 41.36C560.031 43.0134 560.164 44.4 560.271 45.52C560.431 46.5867 560.644 47.4667 560.911 48.16C561.177 48.8534 561.657 49.3867 562.351 49.76C563.311 50.2934 563.897 51.0934 564.111 52.16C564.377 53.2267 564.164 54.1867 563.471 55.04C562.991 55.68 562.377 56.1067 561.631 56.32C560.937 56.48 560.217 56.5067 559.471 56.4C558.724 56.24 558.084 56.0267 557.551 55.76C556.697 55.2267 555.817 54.48 554.911 53.52C554.057 52.5067 553.364 51.12 552.831 49.36C552.297 47.6 552.031 45.28 552.031 42.4C552.031 41.0667 551.817 39.92 551.391 38.96C550.964 38 550.377 37.2267 549.631 36.64C548.884 36 548.004 35.5467 546.991 35.28C545.977 34.96 544.857 34.8 543.631 34.8H526.671L527.791 33.2V52.32C527.791 53.4934 527.471 54.48 526.831 55.28C526.191 56.0267 525.311 56.4 524.191 56.4ZM526.751 27.84H545.871C547.097 27.7867 548.271 27.3067 549.391 26.4C550.564 25.44 551.497 24.16 552.191 22.56C552.937 20.96 553.311 19.1467 553.311 17.12C553.311 14.56 552.537 12.4267 550.991 10.72C549.497 8.96002 547.711 8.08002 545.631 8.08002H526.911L527.791 6.00002V29.52L526.751 27.84ZM613.213 0.320022C614.386 0.320022 615.32 0.720021 616.013 1.52002C616.706 2.26669 617.053 3.22669 617.053 4.40002V34.72C617.053 38.9867 616.12 42.8 614.253 46.16C612.386 49.52 609.826 52.16 606.573 54.08C603.32 55.9467 599.56 56.88 595.293 56.88C591.08 56.88 587.32 55.9467 584.013 54.08C580.76 52.16 578.173 49.52 576.253 46.16C574.386 42.8 573.453 38.9867 573.453 34.72V4.40002C573.453 3.22669 573.853 2.26669 574.653 1.52002C575.453 0.720021 576.493 0.320022 577.773 0.320022C578.786 0.320022 579.693 0.720021 580.493 1.52002C581.346 2.26669 581.773 3.22669 581.773 4.40002V34.72C581.773 37.5467 582.386 40.0267 583.613 42.16C584.893 44.24 586.573 45.8934 588.653 47.12C590.733 48.2934 592.946 48.88 595.293 48.88C597.853 48.88 600.2 48.2934 602.333 47.12C604.466 45.8934 606.173 44.24 607.453 42.16C608.786 40.0267 609.453 37.5467 609.453 34.72V4.40002C609.453 3.22669 609.773 2.26669 610.413 1.52002C611.106 0.720021 612.04 0.320022 613.213 0.320022ZM672.094 0.400021C673.16 0.400021 674.014 0.773354 674.654 1.52002C675.347 2.21335 675.694 3.09335 675.694 4.16002V52.32C675.694 53.4934 675.294 54.48 674.494 55.28C673.747 56.0267 672.787 56.4 671.614 56.4C671.08 56.4 670.494 56.2934 669.854 56.08C669.267 55.8667 668.814 55.5734 668.494 55.2L635.614 12.56L637.454 11.52V52.72C637.454 53.7334 637.107 54.6134 636.414 55.36C635.72 56.0534 634.84 56.4 633.774 56.4C632.654 56.4 631.747 56.0534 631.054 55.36C630.414 54.6134 630.094 53.7334 630.094 52.72V4.48002C630.094 3.25335 630.494 2.26669 631.294 1.52002C632.094 0.773354 633.054 0.400021 634.174 0.400021C634.76 0.400021 635.374 0.533354 636.014 0.80002C636.707 1.01335 637.214 1.36002 637.534 1.84002L669.614 43.6L668.414 44.72V4.16002C668.414 3.09335 668.76 2.21335 669.454 1.52002C670.147 0.773354 671.027 0.400021 672.094 0.400021ZM727.806 56.48C726.579 56.48 725.592 55.9734 724.846 54.96L704.926 29.28L711.086 23.04L731.406 49.52C732.046 50.3734 732.366 51.3067 732.366 52.32C732.366 53.6 731.886 54.6134 730.926 55.36C729.966 56.1067 728.926 56.48 727.806 56.48ZM728.206 0.160024C729.272 0.160024 730.152 0.58669 730.846 1.44002C731.539 2.29336 731.886 3.17336 731.886 4.08002C731.886 5.04002 731.486 5.92002 730.686 6.72002L696.206 39.44L695.726 30L725.006 1.68002C725.966 0.66669 727.032 0.160024 728.206 0.160024ZM692.926 56.4C691.699 56.4 690.686 56.0267 689.886 55.28C689.139 54.48 688.766 53.4934 688.766 52.32V4.48002C688.766 3.30669 689.166 2.34669 689.966 1.60002C690.766 0.80002 691.806 0.400021 693.086 0.400021C694.312 0.400021 695.299 0.80002 696.046 1.60002C696.792 2.34669 697.166 3.30669 697.166 4.48002V52.32C697.112 53.4934 696.712 54.48 695.966 55.28C695.219 56.0267 694.206 56.4 692.926 56.4Z" fill="#1F1F1F"/>
</svg>
